Coordinates
version=1
nRows=6
nColumns=36
inDegrees=yes

Units are S.I. units (second, meters, Newtons, ...)
If the header above contains a line with 'inDegrees', this indicates whether rotational values are in degrees (yes) or radians (no).

endheader
time	pelvis_tilt	pelvis_list	pelvis_rotation	pelvis_tx	pelvis_ty	pelvis_tz	hip_flexion_r	hip_adduction_r	hip_rotation_r	knee_angle_r	knee_angle_r_beta	ankle_angle_r	subtalar_angle_r	mtp_angle_r	hip_flexion_l	hip_adduction_l	hip_rotation_l	knee_angle_l	knee_angle_l_beta	ankle_angle_l	subtalar_angle_l	mtp_angle_l	lumbar_extension	lumbar_bending	lumbar_rotation	arm_flex_r	arm_add_r	arm_rot_r	elbow_flex_r	pro_sup_r	arm_flex_l	arm_add_l	arm_rot_l	elbow_flex_l	pro_sup_l
      5.83333330	    -13.27481428	     -2.44809757	      1.97117252	      0.32625068	      0.82474433	     -0.09755106	     38.25044781	      0.12979265	      3.10585622	     38.30503151	      0.66854892	     11.00314749	    -26.19115156	     -7.49999987	     40.00732506	     -6.09018266	      3.21424000	     40.50111567	      0.70687782	     15.26185223	     -7.29791846	     -7.49999987	    -12.98904757	      0.55176230	     -0.57000342	     11.61718633	    -11.20174998	     16.56274704	     32.54028541	     84.89351603	      8.56169284	     -9.76934004	     -2.42792381	     38.75893127	     79.69922491
      5.85000000	    -12.39815518	     -2.54745886	      2.26201881	      0.33306240	      0.83413225	     -0.09639431	     35.57655968	      0.23915087	      3.02614978	     35.88669162	      0.62634093	     10.69948936	    -26.11151630	     -7.49999987	     37.56917550	     -6.16906493	      3.25070518	     38.30965250	      0.66862957	     14.95283419	     -6.70147676	     -7.49999987	    -12.54033630	      0.65270877	     -0.72993120	     11.13055119	    -11.04575362	     16.54874770	     32.35384195	     85.36556094	      8.13466663	     -9.81071988	     -1.96067949	     38.38362697	     80.28827278
      5.86666670	    -11.74832540	     -2.60408507	      2.37233873	      0.33757819	      0.84016824	     -0.09464681	     33.20883194	      0.46200960	      2.93914651	     33.43467791	      0.58354521	     10.32984017	    -26.19166769	     -7.49999987	     35.35570614	     -6.35821616	      3.16441027	     36.10401694	      0.63013397	     14.29524643	     -6.34794442	     -7.49999987	    -11.83013859	      0.63279971	     -0.83984178	     10.67544791	    -10.83641719	     16.53346021	     31.94254486	     85.93767070	      7.70417095	     -9.94601197	     -1.53316389	     37.77717293	     81.05743352
      5.88333330	    -10.92165136	     -2.52274852	      2.54447361	      0.34289295	      0.84873245	     -0.09645089	     30.51408628	      0.49048879	      3.14211804	     30.74766621	      0.53664801	      9.78411331	    -25.83711290	     -7.49999987	     32.71353907	     -6.32618327	      3.06239324	     33.42462609	      0.58336978	     13.54297838	     -5.70007568	     -7.49999987	    -11.44819420	      0.54656570	     -1.02649912	     10.22487314	    -10.63810095	     16.46620751	     31.82122207	     86.23819163	      7.23006746	    -10.10268708	     -0.96380520	     37.41900223	     81.49278206
      5.90000000	    -10.27051483	     -2.34360948	      2.56886101	      0.34960121	      0.85308123	     -0.09690805	     28.01657939	      0.43323934	      3.54861463	     27.99725736	      0.48864432	      9.09404458	    -25.61242387	     -7.49999987	     30.17131840	     -6.20331327	      3.00056353	     30.64877553	      0.53492204	     12.80760361	     -5.46690386	     -7.49999987	    -10.71901490	      0.38551761	     -1.14836175	      9.84556891	    -10.39300404	     16.65339464	     31.29039954	     86.91170049	      6.75444628	    -10.18762220	     -0.33715560	     36.63405357	     82.31916604
      5.91666670	     -9.35736604	     -2.18566454	      2.58161107	      0.35386940	      0.85978862	     -0.09775778	     25.39099870	      0.31797805	      3.76291577	     25.49563819	      0.44498283	      8.61842788	    -25.20394526	     -7.49999987	     27.43490059	     -6.01740460	      2.93348946	     27.91736380	      0.48724992	     12.02991499	     -5.05434609	     -7.49999987	    -10.60704395	      0.26295238	     -1.29764331	      9.60095812	    -10.31297035	     16.82788179	     31.06149166	     87.70495967	      6.38610389	    -10.27757899	      0.48998790	     36.14646254	     83.29957080
